<svg width="34" height="33" viewBox="0 0 34 33" fill="none" xmlns="http://www.w3.org/2000/svg">
<path d="M16.0489 2.16311C16.3483 1.24181 17.6517 1.2418 17.9511 2.16312L20.5392 10.1287C20.9408 11.3647 22.0927 12.2016 23.3924 12.2016H31.7679C32.7366 12.2016 33.1394 13.4412 32.3557 14.0106L25.5798 18.9336C24.5283 19.6976 24.0883 21.0517 24.4899 22.2877L27.0781 30.2533C27.3775 31.1746 26.323 31.9407 25.5393 31.3713L18.7634 26.4483C17.7119 25.6844 16.2881 25.6844 15.2366 26.4483L8.46073 31.3713C7.67702 31.9407 6.62254 31.1746 6.92189 30.2533L9.51006 22.2877C9.91168 21.0517 9.47171 19.6976 8.42025 18.9336L1.64433 14.0106C0.860627 13.4412 1.26339 12.2016 2.23212 12.2016H10.6076C11.9073 12.2016 13.0592 11.3647 13.4608 10.1287L16.0489 2.16311Z" fill="white" stroke="#9D83E9" stroke-width="2"/>
</svg>
